<svg xmlns="http://www.w3.org/2000/svg" viewBox="0 0 512 512">
  <defs>
    <linearGradient id="bg" x1="0%" y1="0%" x2="100%" y2="100%">
      <stop offset="0%" style="stop-color:#0f172a"/>
      <stop offset="60%" style="stop-color:#1e293b"/>
      <stop offset="100%" style="stop-color:#334155"/>
    </linearGradient>
    <linearGradient id="teal" x1="0%" y1="0%" x2="100%" y2="100%">
      <stop offset="0%" style="stop-color:#2dd4bf"/>
      <stop offset="100%" style="stop-color:#0d9488"/>
    </linearGradient>
    <linearGradient id="streak" x1="0%" y1="0%" x2="100%" y2="100%">
      <stop offset="0%" style="stop-color:#ff6b35"/>
      <stop offset="100%" style="stop-color:#f7931e"/>
    </linearGradient>
  </defs>
  <rect width="512" height="512" rx="108" fill="url(#bg)"/>
  <path d="M130 320 Q180 180 256 160 Q332 180 382 320" fill="none" stroke="url(#teal)" stroke-width="28" stroke-linecap="round"/>
  <line x1="170" y1="300" x2="120" y2="410" stroke="#94a3b8" stroke-width="16" stroke-linecap="round"/>
  <line x1="342" y1="300" x2="392" y2="410" stroke="#94a3b8" stroke-width="16" stroke-linecap="round"/>
  <path d="M105 380 Q80 340 120 310" fill="none" stroke="url(#streak)" stroke-width="10" stroke-linecap="round"/>
  <path d="M118 316 L120 310 L128 318" fill="none" stroke="url(#streak)" stroke-width="8" stroke-linecap="round" stroke-linejoin="round"/>
  <path d="M407 380 Q432 340 392 310" fill="none" stroke="url(#streak)" stroke-width="10" stroke-linecap="round"/>
  <path d="M384 318 L392 310 L394 316" fill="none" stroke="url(#streak)" stroke-width="8" stroke-linecap="round" stroke-linejoin="round"/>
  <circle cx="256" cy="165" r="18" fill="url(#teal)"/>
  <text x="256" y="460" text-anchor="middle" font-family="sans-serif" font-weight="800" font-size="52" fill="#64748b" letter-spacing="6">MOBILITY</text>
</svg>
